<svg width="128" height="128" fill="none" xmlns="http://www.w3.org/2000/svg"><path d="M75.066 17.674c-.663.464.008 1.513.729 1.149 7.525-3.807 20.181-8.937 26.21-2.67 7.723 8.027-9.988 33.125-9.994 33.137.004-.006 0 0 6.912 14.878 0 0 16.764-20.976 22.193-39.39C124.786 12.333 123.71.6 111.963.6c-7.472 0-19.262 4.746-36.897 17.074" fill="url(#p0)"/><path d="M2.51 21.665c1.497 14.14 7.093 24.294 11.338 30.16.55.761 1.715.096 1.366-.776 0 0-2.201-3.998-3.192-8.675-.725-3.423-.802-7.21 1.11-10.06 4.713-7.023 16.976-3.801 25.45.28 23.464 11.3 41.558 32.23 41.558 32.23-28.754 33.581-56.962 46.492-65.744 38.065-5.517-5.293-2.056-16.423.531-22.727.245-.595-.589-1.028-.941-.492-28.07 42.752-5.882 53.848 21.783 39.706 27.026-13.815 46.883-35.77 53.305-43.43 7.082 9.742 18.498 29.262 10.848 37.26-5.525 5.776-16.785 1.698-24.199-1.704-.678-.31-1.216.63-.609 1.061 15.615 11.081 52.567 26.373 49.732-.817-2.504-24.024-36.38-63.725-65.036-83.972C42.08 15.247 24.966 7.307 14.1 7.306c-8.03 0-12.65 4.335-11.589 14.36" fill="url(#p1)"/><defs><linearGradient id="p0" x1="117.632" y1="9.421" x2="44.676" y2="84.239" gradientUnits="userSpaceOnUse"><stop stop-color="#00B0F7"/><stop offset="1" stop-color="#002456"/></linearGradient><linearGradient id="p1" x1="115.22" y1="13.883" x2="49.093" y2="81.698" gradientUnits="userSpaceOnUse"><stop stop-color="#00B0F7"/><stop offset="1" stop-color="#002456"/></linearGradient></defs></svg>